<svg xmlns="http://www.w3.org/2000/svg" width="100" height="100" viewBox="0 0 100 100">
  <defs>
    <style>
      .cls-1 {
        fill: #ccc;
        fill-rule: evenodd;
      }
    </style>
  </defs>
  <path id="_" data-name="{}" class="cls-1" d="M23.219,45.293q1.952-3.417,1.953-11.572V26.543q0-5.273,1.2-7.1a6.187,6.187,0,0,1,4.272-2.417q0.488-.048,1.318-0.2,4.3-.537,4.3-3.906a3.277,3.277,0,0,0-1.1-2.612,4.589,4.589,0,0,0-3.1-.952q-8.252,0-11.67,4.15t-3.418,15.43v5.811q0,9.473-8.105,11.182-1.368.342-2.1,0.488a3.916,3.916,0,0,0-2.2,1.27,3.885,3.885,0,0,0-.684,2.441,4.044,4.044,0,0,0,.83,2.808,4.555,4.555,0,0,0,2.734,1.2q6.3,1.075,7.91,3.442t1.611,8.081v5.664q0,11.327,3.369,15.43t11.621,4.1a4.858,4.858,0,0,0,3.174-.928,3.173,3.173,0,0,0,1.123-2.588q0-3.418-4.3-4-1.172-.146-1.807-0.293a6.018,6.018,0,0,1-3.906-2.393q-1.075-1.71-1.074-6.787V66.631q0-8.1-1.953-11.548t-6.836-4.956Q21.265,48.711,23.219,45.293Zm53.638,9.839q-1.977,3.492-1.978,11.5v7.227q0,5.322-1.172,7.031t-4.346,2.246a10.9,10.9,0,0,1-1.269.2q-4.2.586-4.2,3.711a3.662,3.662,0,0,0,1.05,2.856,4.554,4.554,0,0,0,3.149.952q8.251,0,11.621-4.1t3.369-15.43V65.654q0-9.668,8.594-11.328,0.976-.195,1.514-0.293a3.65,3.65,0,0,0,2.319-1.269,4.2,4.2,0,0,0,.757-2.637,3.693,3.693,0,0,0-.708-2.417,4.417,4.417,0,0,0-2.27-1.294q-0.782-.195-2.295-0.488-7.91-1.659-7.91-11.182V28.936q0-11.279-3.418-15.43t-11.67-4.15a4.38,4.38,0,0,0-3.076.952,3.646,3.646,0,0,0-1.025,2.808q0,3.125,4.2,3.711a18.759,18.759,0,0,1,1.9.293A5.834,5.834,0,0,1,73.8,19.585q1.073,1.783,1.074,6.958v7.178q0,8.106,1.978,11.548t6.909,4.858Q78.833,51.641,76.856,55.132Z"/>
</svg>
