<svg xmlns="http://www.w3.org/2000/svg" width="100" height="100" viewBox="0 0 100 100">
  <defs>
    <style>
      .cls-1 {
        fill: #e6e6e6;
      }

      .cls-1, .cls-2 {
        fill-rule: evenodd;
      }

      .cls-2 {
        fill: #bfbfbf;
      }
    </style>
  </defs>
  <path id="L" class="cls-1" d="M38.534,95.688h50V85.955h-38.4V5.823h-11.6V95.688Z"/>
  <path id="R" class="cls-2" d="M20.2,95.637H31.8V56.7H42.731c10.533,0.4,15.333,5.067,18,17.466,2.533,11.2,4.533,18.933,6,21.466h12c-1.867-3.467-4-12.133-6.933-24.666-2.133-9.333-6.267-15.733-13.2-18.133v-0.4C68.064,49.238,75.53,41.371,75.53,29.5c0-6.933-2.533-13.067-7.067-17.066-5.6-5.067-13.6-7.333-26-7.333A120.824,120.824,0,0,0,20.2,6.971V95.637ZM31.8,15.1a47.723,47.723,0,0,1,11.466-1.067c12.267,0.133,20.666,5.2,20.666,16.8C63.93,41.1,56.064,47.9,43.664,47.9H31.8V15.1Z"/>
</svg>
